<?xml version="1.0" encoding="utf-8"?>
<!-- Generator: Adobe Illustrator 18.1.1, SVG Export Plug-In . SVG Version: 6.00 Build 0)  -->
<svg version="1.1" id="Capa_1" xmlns="http://www.w3.org/2000/svg" xmlns:xlink="http://www.w3.org/1999/xlink" x="0px" y="0px"
	 viewBox="-83 -13.7 326.7 326.7" enable-background="new -83 -13.7 326.7 326.7" xml:space="preserve">
<g>
	<path fill="#942020" d="M33.6,306.3c64.9,3.5,130.3-0.1,195.2,1.7c19.8,0.6,19.8-30.2,0-30.7c-2.8-0.1-5.6-0.1-8.5-0.2
		c-0.1-0.1-0.2-0.2-0.3-0.3c-15.3-11.4-21.5-42.4,0.1-50.7c2.1-0.8,3.8-1.9,5.2-3.2c0.7,0,1.4,0,2.1,0c5-0.1,8.8-2.2,11.2-5.2
		c2.9-2.4,4.7-6.2,4.1-11.5C235,137.6,224.1,69.6,206.8,2.6c-1.6-6.3-8.1-11.7-14.8-11.3C119.2-4,46.3-4.8-26.6-4.8
		c-9.1,0-14.5,7-15.4,15.4c-7.8,73.1-18.1,148-40.2,218.3c-1.1,3.5-1,6.7,0,9.4c-0.2,2-0.4,4-0.4,6.1
		C-84.4,299.6-5.2,304.3,33.6,306.3z M72.4,25.8c4.8,0,9.6-0.1,14.5-0.1c1.2,15.9,4.4,32.4,3.5,48.3c-1.6-1.3-3.3-2.6-4.8-4.1
		C82,66.5,76,67,73.5,71.5c-0.2,0.4-0.5,0.7-0.7,1C71.1,57.1,72,41.4,72.4,25.8z M-13,25.9c23.3,0,46.7,0.1,70,0
		c-0.5,21.5-1.7,43.1,3,64.2c1.3,6.1,8.7,6.9,12.8,3.4c3-2.5,5.8-4.7,8.3-7.2c3.6,2.8,7.3,5.2,11.6,7.1c4.1,1.9,10.3,0.7,11.3-4.6
		c4-20.9-0.5-42.3-1.9-63.4c26-0.4,51.9-1.3,77.9-2.7c13.8,55.9,23.4,112.4,30.4,169.5C147.8,193,85,191.5,22.3,191
		c-19.5-0.2-43.2-1.4-63.1,3.3C-27.1,139.2-19.2,82.2-13,25.9z M64.6,222.2c39,0.4,78.1,1.1,117.2,1.1c-7.9,16.2-7.2,35.9,0.8,53.1
		c-31.9-0.4-63.7-0.4-95.6-0.4c-24.4,0-48.8,0.2-73.2-1.7c-17.2-1.3-58.7-4.4-65.8-24.7C-66.3,208.5,47.4,222,64.6,222.2z"/>
</g>
</svg>
