<?xml version="1.0" encoding="utf-8"?>
<!-- Generator: Adobe Illustrator 18.1.1, SVG Export Plug-In . SVG Version: 6.00 Build 0)  -->
<svg version="1.1" id="Capa_1" xmlns="http://www.w3.org/2000/svg" xmlns:xlink="http://www.w3.org/1999/xlink" x="0px" y="0px"
	 viewBox="0 0 494 300" enable-background="new 0 0 494 300" xml:space="preserve">
<g>
	<path fill="#942020" d="M320.6,63.3c11.5,0,20.8-9.2,20.8-20.8V20.8c0-11.5-9.3-20.8-20.8-20.8c-11.5,0-20.8,9.3-20.8,20.8v21.8
		C299.8,54.1,309.1,63.3,320.6,63.3z"/>
	<path fill="#942020" d="M394.5,36h-41.9v10.5c0,17.5-14.2,31.7-31.7,31.7c-17.5,0-31.7-14.2-31.7-31.7V36h-84.5v10.5
		c0,17.5-14.2,31.7-31.7,31.7c-17.5,0-31.7-14.2-31.7-31.7V36l-42.3-0.5V300l21.1,0h253.4l21.1-0.1L394.5,36z M373.7,278.9H120.3
		v-169h253.4L373.7,278.9L373.7,278.9z"/>
	<path fill="#942020" d="M172.7,63.3c11.5,0,20.8-9.2,20.8-20.8V20.8c0-11.5-9.3-20.8-20.8-20.8c-11.5,0-20.8,9.3-20.8,20.8v21.8
		C151.9,54.1,161.2,63.3,172.7,63.3z"/>
	<path fill="#942020" d="M177.3,224.1c4.3,2.4,14.2,6.4,24.2,6.4c12.6,0,19-6.1,19-13.7c0-10.4-10.3-15-20.9-15h-9.9v-17.4h9.6
		c8.2,0,18.4-3.2,18.4-12c0-6.2-5-10.9-15.3-10.9c-8.5,0-17.4,3.7-21.6,6.3l-5-17.6c6.3-4,18.5-7.8,32.1-7.8
		c22.1,0,34.3,11.6,34.3,25.9c0,11-6.2,19.8-19,24.1v0.3c12.5,2.2,22.5,11.7,22.5,25.4c0,18.2-16.1,31.6-42.5,31.6
		c-13.4,0-24.8-3.5-30.8-7.2L177.3,224.1z"/>
	<polygon fill="#942020" points="292.7,165.6 292.4,165.6 272.6,175 268.6,156.8 296.3,144 316.2,144 316.2,247.8 292.7,247.8 	"/>
</g>
</svg>
