<?xml version="1.0" encoding="utf-8"?>
<!-- Generator: Adobe Illustrator 18.1.1, SVG Export Plug-In . SVG Version: 6.00 Build 0)  -->
<svg version="1.1" id="Capa_1" xmlns="http://www.w3.org/2000/svg" xmlns:xlink="http://www.w3.org/1999/xlink" x="0px" y="0px"
	 viewBox="119 -216.4 732.4 732.4" enable-background="new 119 -216.4 732.4 732.4" xml:space="preserve">
<g>
	<g>
		<path fill="#942020" d="M781.7-202.9L610.3,129.3c16.1,4.5,31.5,12.6,44.1,23.6c22.9-44.5,205.7-343.4,160.9-366.5
			C803.1-220,788-215.2,781.7-202.9z"/>
		<path fill="#942020" d="M215.6,413.2c66.1,59.6,175.2,114.8,267.3,98.9c126.7-21.9,207-164.7,181.1-289.1
			c-11.1-53-57.9-86.7-110.1-62.2c-59.6,28-93.1,79-160.6,98.1c-40.8,11.5-82.9,18.1-125.1,21.7c-29.4,2.6-80.6-8.6-106.3,2.2
			C109.7,304.6,190.7,390.8,215.6,413.2C242.8,437.8,181,382,215.6,413.2z M191.8,317.6c65.8,0,132.3-5.5,196.2-22
			c33.3-8.6,77.2-40.2,109.3-43.6c22.5-2.3,52,22.9,72,32.3c40.2,18.8,57.8,18.8,45.2,66.3c-9.5,35.9-27.2,69.1-56.1,92.8
			c-44.8,36.7-101,44-155,29.1c8.8-3.9,81-44.3,75.8-53c-1-1.7-104.6,23.6-112.8,24.7c-36.3,4.9-52.1-3.5-84.3-23.7
			c8.1-0.7,86.7-16.5,84.7-25c-0.8-3.3-64.3,0.4-67.2,0.4c-29.9-0.1-50.1,3.5-71.7-18.2c9.8-1,85.4-16.7,83.4-24.8
			c-1.1-4.6-79.9,2.7-89.1,0.1c-15.2-4.3-16.2,0.9-26-14.4C198.8,342.8,179.2,317.6,191.8,317.6z"/>
		<path fill="#942020" d="M740.2,363.2c51.8,0,51.8,80.3,0,80.3S688.5,363.2,740.2,363.2z"/>
		<path fill="#942020" d="M653.7,474.9c26.2,0,26.2,40.6,0,40.6S627.5,474.9,653.7,474.9z"/>
		<path fill="#942020" d="M763.6,470.2c26.2,0,26.2,40.6,0,40.6S737.4,470.2,763.6,470.2z"/>
	</g>
</g>
</svg>
