<?xml version="1.0" encoding="utf-8"?>
<!-- Generator: Adobe Illustrator 18.1.1, SVG Export Plug-In . SVG Version: 6.00 Build 0)  -->
<svg version="1.1" id="Capa_1" xmlns="http://www.w3.org/2000/svg" xmlns:xlink="http://www.w3.org/1999/xlink" x="0px" y="0px"
	 viewBox="-234 138.6 24.4 24.4" enable-background="new -234 138.6 24.4 24.4" xml:space="preserve">
<g>
	<g>
		<path fill="#942020" d="M-227.6,147.9c1.8,0,3.2-1.4,3.2-3.2c0-1.1,0.4-2.1-0.5-2.7c-0.5-0.3-2.8-0.5-3.4-0.5
			c-0.8,0-1.8,0.6-2.4,1.1c-0.7,0.6-0.1,1.1-0.1,2.1C-230.8,146.4-229.4,147.9-227.6,147.9z M-229.8,144.3c0.6-0.1,1,0.1,1,0.1
			l1-0.5c0,0-0.5,0.7-0.1,0.5c1-0.3,2.1-0.2,2.7-0.1c0,0.1,0,0.3,0,0.4c0,1.3-1,2.4-2.3,2.4c-1.3,0-2.3-1.1-2.3-2.4
			C-229.9,144.6-229.8,144.5-229.8,144.3z"/>
		<path fill="#942020" d="M-211.9,144.2c0-0.2,0-0.4-0.1-0.5c-0.1-1.1-1.1-3.4-4-3.3c-2.5,0.1-3,1.9-3.2,3.1
			c-0.1,0.3-0.1,0.6-0.2,0.9c-3.2,0.6-2.9,3.8-0.9,3.9c-0.2-1.7,0.6-2.7,0.9-3.1c0.3,1.8,1.8,3.1,3.7,3.1c1.8,0,3.2-1.2,3.6-2.9
			c0.3,0.5,0.8,1.6,0.7,2.8C-208.2,148.2-209.7,144.6-211.9,144.2z M-215.6,147.2c-1.5,0-2.6-1.2-2.7-2.6c0.5-0.2,0.9-1.1,0.9-1.1
			s0.3,0.1,0.3,1.1c0.6,0.2,1.5-1.6,1.5-1.6v1.4c0.6,0.2,2.5-0.1,2.5-0.1l0.1,0.1c0,0,0,0.1,0,0.1C-213,146-214.2,147.2-215.6,147.2
			z"/>
		<polygon fill="#942020" points="-214.9,148.3 -216.4,148.3 -217.7,148.3 -221.6,153 -225.3,148.4 -229.6,148.4 -234,153.3 
			-233.1,154.2 -229.9,151.5 -229.9,156.8 -229.3,156.8 -229.3,160.8 -229.7,160.8 -229.7,161.2 -227.8,161.2 -227.8,160.8 
			-227.8,156.8 -227.1,156.8 -227.1,160.8 -227.1,161.2 -225.3,161.2 -225.3,160.8 -225.7,160.8 -225.7,156.8 -224.9,156.8 
			-224.9,151.6 -222.4,154.2 -221.3,154 -220.8,154.1 -217.9,150.8 -217.7,152.1 -220.4,156.7 -217.3,156.7 -217.3,160.7 
			-217.7,160.7 -217.7,161.2 -215.9,161.2 -215.9,160.7 -215.9,160.7 -215.9,156.7 -215.2,156.7 -215.2,160.7 -215.2,161.2 
			-213.3,161.2 -213.3,160.7 -213.7,160.7 -213.7,156.7 -211.4,156.7 -213.7,152.1 -213.6,150.5 -211.3,153.5 -209.8,153.2 
			-213.4,148.3 		"/>
	</g>
</g>
</svg>
