<?xml version="1.0" encoding="utf-8"?>
<!-- Generator: Adobe Illustrator 23.0.2, SVG Export Plug-In . SVG Version: 6.00 Build 0)  -->
<svg version="1.1" id="Capa_1" xmlns="http://www.w3.org/2000/svg" xmlns:xlink="http://www.w3.org/1999/xlink" x="0px" y="0px"
	 viewBox="0 0 24.4 24.4" style="enable-background:new 0 0 24.4 24.4;" xml:space="preserve">
<style type="text/css">
	.st0{fill:#942020;}
</style>
<g>
	<g>
		<path class="st0" d="M6.4,11.3c1.8,0,3.2-1.4,3.2-3.1c0-1.1,0.4-2.1-0.5-2.7C8.6,5.2,6.3,5,5.7,5C4.9,5,3.9,5.6,3.3,6.1
			C2.6,6.7,3.2,7.2,3.2,8.2C3.2,9.8,4.6,11.3,6.4,11.3z M4.2,7.8c0.6-0.1,1,0.1,1,0.1l1-0.5c0,0-0.5,0.7-0.1,0.5
			c1-0.3,2.1-0.2,2.7-0.1c0,0.1,0,0.3,0,0.4c0,1.3-1,2.4-2.3,2.4S4.2,9.5,4.2,8.2C4.1,8.1,4.2,8,4.2,7.8z"/>
		<path class="st0" d="M22.1,7.7c0-0.2,0-0.4-0.1-0.5c-0.1-1.1-1.1-3.3-4-3.2c-2.5,0.1-3,1.9-3.2,3c-0.1,0.3-0.1,0.6-0.2,0.9
			c-3.2,0.6-2.9,3.7-0.9,3.8c-0.2-1.7,0.6-2.7,0.9-3c0.3,1.8,1.8,3,3.7,3c1.8,0,3.2-1.2,3.6-2.9c0.3,0.5,0.8,1.6,0.7,2.8
			C25.8,11.6,24.3,8.1,22.1,7.7z M18.4,10.6c-1.5,0-2.6-1.2-2.7-2.6C16.2,7.9,16.6,7,16.6,7s0.3,0.1,0.3,1.1
			c0.6,0.2,1.5-1.6,1.5-1.6v1.4c0.6,0.2,2.5-0.1,2.5-0.1L21,7.9V8C21,9.5,19.8,10.6,18.4,10.6z"/>
		<polygon class="st0" points="19.1,11.7 17.6,11.7 16.3,11.7 12.4,16.3 8.7,11.8 4.4,11.8 0,16.6 0.9,17.5 4.1,14.9 4.1,20.1 
			4.7,20.1 4.7,24 4.3,24 4.3,24.4 6.2,24.4 6.2,24 6.2,20.1 6.9,20.1 6.9,24 6.9,24.4 8.7,24.4 8.7,24 8.3,24 8.3,20.1 9.1,20.1 
			9.1,15 11.6,17.5 12.7,17.3 13.2,17.4 16.1,14.2 16.3,15.5 13.6,20 16.7,20 16.7,23.9 16.3,23.9 16.3,24.4 18.1,24.4 18.1,23.9 
			18.1,23.9 18.1,20 18.8,20 18.8,23.9 18.8,24.4 20.7,24.4 20.7,23.9 20.3,23.9 20.3,20 22.6,20 20.3,15.5 20.4,13.9 22.7,16.8 
			24.2,16.5 20.6,11.7 		"/>
	</g>
</g>
</svg>
