<?xml version="1.0" encoding="utf-8"?>
<!-- Generator: Adobe Illustrator 19.0.1, SVG Export Plug-In . SVG Version: 6.00 Build 0)  -->
<svg version="1.1" id="Capa_1" xmlns="http://www.w3.org/2000/svg" xmlns:xlink="http://www.w3.org/1999/xlink" x="0px" y="0px"
	 viewBox="-58 150.4 493.6 493.6" style="enable-background:new -58 150.4 493.6 493.6;" xml:space="preserve">
<style type="text/css">
	.st0{fill:#942020;}
</style>
<g>
	<path class="st0" d="M429.3,376.4c0-17.4-14-31.5-31.5-31.5H136.5L247.4,234c12.2-12.2,12.2-32.2,0-44.7l-29.8-29.8
		c-12.2-12.2-32.2-12.2-44.7,0L-42.4,374.9c-6.1,6.1-9.3,14.2-9.3,22.3c0,8,3.1,16.1,9.3,22.3l215.3,215.3
		c12.2,12.2,32.2,12.2,44.7,0l29.8-29.8c12.2-12.2,12.2-32.2,0-44.7L136.5,449.9h261.1c17.4,0,31.5-14.2,31.5-31.5L429.3,376.4z"/>
</g>
</svg>
