<?xml version="1.0" encoding="utf-8"?>
<!-- Generator: Adobe Illustrator 18.1.1, SVG Export Plug-In . SVG Version: 6.00 Build 0)  -->
<svg version="1.1" id="Capa_1" xmlns="http://www.w3.org/2000/svg" xmlns:xlink="http://www.w3.org/1999/xlink" x="0px" y="0px"
	 viewBox="0 0 494 300" enable-background="new 0 0 494 300" xml:space="preserve">
<g>
	<g>
		<path fill="#942020" d="M315.2,20.6C248.8-27.3,153.9,7,150.3,91.4c12.3,0,42.7,6,52.1,0c17.7-11.4,18.5-64.7,62.5-42.1
			C337,86.1,213.1,142,214,177.5c0.5,21.6,11.3,32.7,39.4,21.5c18-7.2,16.1-21.9,31.7-39.1C319,122.4,385.7,71.5,315.2,20.6
			C296.2,6.9,334.2,34.3,315.2,20.6z M242.7,232.1c-19-0.6-34.7,12.6-35.3,33.2c-0.6,20.6,14.3,34.2,33.3,34.8
			c19.8,0.6,35.1-12.1,35.7-32.7C277,246.7,262.5,232.6,242.7,232.1C223.7,231.5,262.5,232.6,242.7,232.1z"/>
	</g>
</g>
</svg>
