<?xml version="1.0" encoding="utf-8"?>
<!-- Generator: Adobe Illustrator 18.1.1, SVG Export Plug-In . SVG Version: 6.00 Build 0)  -->
<svg version="1.1" id="Capa_1" xmlns="http://www.w3.org/2000/svg" xmlns:xlink="http://www.w3.org/1999/xlink" x="0px" y="0px"
	 viewBox="-172 77.1 147.9 147.9" enable-background="new -172 77.1 147.9 147.9" xml:space="preserve">
<g>
	<g id="_x33_51._Repeat">
		<g>
			<path fill="#942020" d="M-79.2,206.9c-20.9,8-40.7,4.1-59.4-11.5l4.6-2.7c3.2-1.9,3.2-5-0.1-6.8l-22.5-12.7
				c-3.3-1.8-6-0.3-6.1,3.5l-0.5,26.4c-0.1,3.8,2.5,5.3,5.7,3.4l6.4-3.8c17.4,18.5,47.7,26.6,72,18.9C-65,218-72,204-79.2,206.9
				C-85.7,209.5-72,204-79.2,206.9z M-155.6,147.4c3.1-22.7,19.7-41,41.5-46.7V86.2c-27.4,5.6-49,27.2-54.6,54.6
				C-173.6,158.4-156.1,154.9-155.6,147.4C-152.5,124.6-156.1,154.9-155.6,147.4z M-107.9,112.8L-85,99.1c3.3-2,3.3-5.2,0-7.2
				l-23-13.9c-3.3-2-6-0.5-6,3.4l0.1,28C-113.9,113.2-111.2,114.8-107.9,112.8z M-28.9,180l-11.9-7.1l7.3,4.2
				c8.6-25.6-0.3-57.8-20.7-75.4c-7.1-6.4-17.6,0.6-10.9,9.2c16.7,13.2,24.9,38.5,19.2,59l-6.2-3.6c-3.2-1.9-5.8-0.3-5.7,3.5
				l0.4,26.3c0.1,3.8,2.7,5.4,6,3.6l22.6-12.9C-25.7,185-25.7,181.9-28.9,180z"/>
		</g>
	</g>
</g>
</svg>
