<?xml version="1.0" encoding="utf-8"?>
<!-- Generator: Adobe Illustrator 18.1.1, SVG Export Plug-In . SVG Version: 6.00 Build 0)  -->
<svg version="1.1" id="Arrow_1_" xmlns="http://www.w3.org/2000/svg" xmlns:xlink="http://www.w3.org/1999/xlink" x="0px" y="0px"
	 viewBox="0 0 494 300" enable-background="new 0 0 494 300" xml:space="preserve">
<path fill="#942020" stroke="#8B0000" stroke-miterlimit="10" d="M316.2,36.4C292.6,12.9,261.4,0,228.3,0s-64.4,12.9-87.9,36.4
	c-48.5,48.5-48.5,127.3,0,175.7c23.5,23.5,54.7,36.4,87.9,36.4c28.3,0,55.1-9.5,77-26.8l73.9,74c2.8,2.8,6.5,4.3,10.3,4.3
	s7.4-1.4,10.3-4.3c5.7-5.7,5.7-14.9,0-20.6l-73.9-74C364.3,152.5,361.1,81.3,316.2,36.4z M160.9,191.6
	c-37.1-37.1-37.1-97.6,0.1-134.7c18-18,41.9-27.9,67.3-27.9s49.4,9.9,67.3,27.9c37.1,37.1,37.1,97.6,0,134.6
	c-18,18-41.9,27.9-67.3,27.9S178.9,209.6,160.9,191.6z"/>
</svg>
