<?xml version="1.0" encoding="utf-8"?>
<!-- Generator: Adobe Illustrator 23.0.1, SVG Export Plug-In . SVG Version: 6.00 Build 0)  -->
<svg version="1.1" id="Capa_1" xmlns="http://www.w3.org/2000/svg" xmlns:xlink="http://www.w3.org/1999/xlink" x="0px" y="0px"
	 viewBox="0 0 512 512" style="enable-background:new 0 0 512 512;" xml:space="preserve">
<style type="text/css">
	.st0{fill:#9B1F20;}
</style>
<g>
	<g>
		<path class="st0" d="M394.7,202.7H96c-17.6,0-32,14.4-32,32V256c0,76.1,42,145.2,109.7,180.2c5.2,2.7,11.7,0.7,14.4-4.6
			c2.7-5.2,0.7-11.7-4.6-14.4C123,385.9,85.3,324.1,85.3,256v-21.3c0-5.9,4.8-10.7,10.7-10.7h298.7c5.9,0,10.7,4.8,10.7,10.7V256
			c0,68.1-37.6,129.9-98.2,161.2c-5.2,2.7-7.3,9.2-4.6,14.4c1.9,3.7,5.6,5.8,9.5,5.8c1.7,0,3.3-0.4,4.9-1.2
			c67.7-35,109.7-104,109.7-180.1v-21.3C426.7,217,412.3,202.7,394.7,202.7z"/>
	</g>
</g>
<g>
	<g>
		<path class="st0" d="M489.9,422.6c-1.7-4-5.5-6.6-9.9-6.6H10.7c-4.3,0-8.2,2.6-9.9,6.6s-0.7,8.6,2.3,11.6L27,458.1
			C41.2,472.2,59.9,480,79.8,480h331c19.9,0,38.7-7.8,52.8-21.9l23.9-23.9C490.6,431.1,491.5,426.6,489.9,422.6z M448.6,443
			c-10.1,10.1-23.5,15.6-37.7,15.6h-331c-14.2,0-27.6-5.5-37.7-15.6l-5.7-5.7h417.9L448.6,443z"/>
	</g>
</g>
<g>
	<g>
		<path class="st0" d="M491.4,253c-28.7-18.5-74.6,1.6-79.8,3.9c-5.4,2.5-7.7,8.8-5.3,14.1c2.5,5.4,8.7,7.7,14.1,5.3
			c10.3-4.7,43.3-15.7,59.4-5.4c7.3,4.7,10.8,13.7,10.8,27.6c0,42.7-86.1,68.5-119.4,74.9l-7.6,1.5c-5.8,1.1-9.5,6.7-8.4,12.5
			c1,5.1,5.5,8.6,10.5,8.6c0.7,0,1.4-0.1,2.1-0.2l7.5-1.5c5.6-1.1,136.7-26.8,136.7-95.8C512,277.2,505,261.9,491.4,253z"/>
	</g>
</g>
<g>
	<g>
		<path class="st0" d="M328.4,113.3c17.3-21.7,17.3-55.6,0-77.3c-3.7-4.6-10.4-5.4-15-1.7c-4.6,3.7-5.4,10.4-1.7,15
			c11,13.7,11,36.9,0,50.7c-17.4,21.7-17.4,55.6,0,77.3c2.1,2.6,5.2,4,8.3,4c2.3,0,4.7-0.8,6.7-2.3c4.6-3.7,5.4-10.4,1.7-15
			C317.4,150.3,317.4,127.1,328.4,113.3z"/>
	</g>
</g>
<g>
	<g>
		<path class="st0" d="M264.3,113.3c17.4-21.7,17.4-55.6,0-77.3c-3.7-4.6-10.4-5.4-15-1.7c-4.6,3.7-5.4,10.4-1.7,15
			c11,13.7,11,36.9,0,50.7c-17.3,21.7-17.3,55.6,0,77.3c2.1,2.6,5.2,4,8.3,4c2.3,0,4.7-0.8,6.7-2.3c4.6-3.7,5.4-10.4,1.7-15
			C253.3,150.3,253.3,127.1,264.3,113.3z"/>
	</g>
</g>
<g>
	<g>
		<path class="st0" d="M200.4,113.3c17.3-21.7,17.3-55.6,0-77.3c-3.7-4.6-10.4-5.4-15-1.7c-4.6,3.7-5.3,10.4-1.7,15
			c11,13.7,11,36.9,0,50.7c-17.4,21.7-17.4,55.6,0,77.3c2.1,2.6,5.2,4,8.3,4c2.3,0,4.7-0.8,6.7-2.3c4.6-3.7,5.4-10.4,1.7-15
			C189.3,150.3,189.3,127.1,200.4,113.3z"/>
	</g>
</g>
</svg>
